<svg width="29" height="26" viewBox="0 0 29 26" fill="none" xmlns="http://www.w3.org/2000/svg">
<path d="M19.0552 13.2185C19.3795 13.0298 19.6639 12.7764 19.8919 12.4731C20.1198 12.1699 20.2867 11.8228 20.3828 11.4523C20.4788 11.0818 20.5021 10.6953 20.4513 10.3155C20.4005 9.93558 20.2766 9.56995 20.0868 9.23999L15.0364 0.317051C14.9818 0.220309 14.9035 0.140031 14.8093 0.08422C14.7151 0.0284093 14.6083 -0.000976562 14.4996 -0.000976562C14.3909 -0.000976562 14.2841 0.0284093 14.1899 0.08422C14.0957 0.140031 14.0174 0.220309 13.9628 0.317051L8.94975 9.28322C8.76238 9.61287 8.64055 9.97758 8.59125 10.3561C8.54195 10.7347 8.56618 11.1196 8.66259 11.4884C8.75899 11.8572 8.92564 12.2026 9.15282 12.5046C9.38001 12.8066 9.66324 13.059 9.98601 13.2474L12.4038 14.6889L14.4902 15.9238L16.7914 14.564L19.0552 13.2185Z" fill="black"/>
<path d="M28.9171 25.0338L23.9275 16.082C23.7445 15.7478 23.4986 15.4545 23.2042 15.2194C22.9098 14.9842 22.5727 14.812 22.2128 14.7126C21.8528 14.6133 21.4773 14.5889 21.1081 14.6408C20.7389 14.6928 20.3835 14.8201 20.0627 15.0153L17.8035 16.3655L15.5117 17.7446V23.1118C15.5117 23.8764 15.8068 24.6097 16.332 25.1503C16.8572 25.691 17.5695 25.9948 18.3123 25.9948H28.3617C28.4725 25.9983 28.5823 25.9713 28.6795 25.9164C28.7767 25.8616 28.8579 25.7809 28.9146 25.6828C28.9713 25.5847 29.0014 25.4728 29.0019 25.3587C29.0023 25.2445 28.9731 25.1323 28.9171 25.0338Z" fill="black"/>
<path d="M8.94421 15.0202C8.6234 14.825 8.26793 14.6977 7.89872 14.6457C7.52951 14.5937 7.15396 14.6182 6.79403 14.7175C6.4341 14.8169 6.09704 14.9891 5.80262 15.2243C5.50819 15.4594 5.26232 15.7527 5.07939 16.0869L0.0849946 25.0339C0.0312616 25.1316 0.00333852 25.2421 0.003915 25.3544C0.00449148 25.4667 0.0335659 25.5769 0.0882993 25.6741C0.143033 25.7712 0.221522 25.8519 0.315926 25.9082C0.410331 25.9645 0.517365 25.9944 0.626456 25.9949H10.6759C11.4186 25.9949 12.131 25.6911 12.6562 25.1504C13.1814 24.6098 13.4765 23.8765 13.4765 23.1119V17.7495L11.18 16.3704L8.94421 15.0202Z" fill="black"/>
</svg>
